<?xml version="1.0" encoding="utf-8"?>
<!-- Generator: Adobe Illustrator 16.0.4, SVG Export Plug-In . SVG Version: 6.00 Build 0)  -->
<!DOCTYPE svg PUBLIC "-//W3C//DTD SVG 1.1//EN" "http://www.w3.org/Graphics/SVG/1.1/DTD/svg11.dtd">
<svg version="1.1" id="Layer_1" xmlns="http://www.w3.org/2000/svg" xmlns:xlink="http://www.w3.org/1999/xlink" x="0px" y="0px"
	 width="36.204px" height="36.204px" viewBox="0 0 36.204 36.204" enable-background="new 0 0 36.204 36.204" xml:space="preserve">
<g>
	<path fill="#C41230" d="M0,18.102C0,8.104,8.104,0,18.102,0c9.997,0,18.102,8.104,18.102,18.102s-8.105,18.103-18.102,18.103
		C8.104,36.204,0,28.099,0,18.102"/>
	<path fill="#FFFFFF" d="M6.752,19.426c0.017,0.001,0.034,0.001,0.052,0h0.001h1.069c2.516,0,3.776,3.042,1.997,4.821l-0.756,0.757
		c-0.532,0.571-0.5,1.465,0.071,1.996c0.542,0.505,1.382,0.505,1.925-0.001l0.756-0.755c1.78-1.778,4.822-0.519,4.822,1.997v1.07
		c0,0.78,0.633,1.412,1.413,1.412c0.779-0.001,1.411-0.632,1.412-1.412v-1.07c0-2.517,3.042-3.777,4.821-1.998l0.757,0.756
		c0.57,0.532,1.464,0.5,1.995-0.069c0.505-0.542,0.505-1.384,0-1.926l-0.757-0.757c-1.779-1.779-0.519-4.821,1.998-4.821h1.071
		c0.78,0.015,1.424-0.605,1.438-1.386c0.015-0.779-0.606-1.424-1.385-1.438c-0.018,0-0.036,0-0.053,0h-1.07
		c-2.517,0-3.777-3.042-1.998-4.822l0.756-0.756c0.529-0.574,0.492-1.468-0.082-1.996c-0.541-0.498-1.373-0.498-1.913,0
		l-0.757,0.757c-1.779,1.779-4.821,0.52-4.821-1.998V6.718c0-0.78-0.633-1.413-1.413-1.413c-0.78,0-1.412,0.633-1.412,1.413v1.067
		c0,2.518-3.042,3.777-4.822,1.998l-0.756-0.756c-0.574-0.529-1.468-0.492-1.996,0.082c-0.498,0.541-0.498,1.373,0,1.914
		l0.757,0.756c1.779,1.78,0.519,4.822-1.997,4.822h-1.07c-0.78-0.016-1.424,0.605-1.439,1.386
		C5.352,18.768,5.972,19.411,6.752,19.426 M19.69,17.22c1.316,0,2.383,1.066,2.383,2.383c0,1.315-1.067,2.383-2.383,2.383
		c-1.316,0-2.383-1.067-2.383-2.383C17.307,18.286,18.374,17.22,19.69,17.22 M15.718,14.2c0.79,0,1.43,0.641,1.43,1.43
		c0,0.79-0.64,1.431-1.43,1.431s-1.43-0.641-1.43-1.431C14.288,14.841,14.928,14.2,15.718,14.2"/>
</g>
</svg>
